<svg id="Слой_1" data-name="Слой 1" xmlns="http://www.w3.org/2000/svg" viewBox="0 0 882.84 533.22"><defs><style>.cls-1{fill:#6aaae4;fill-rule:evenodd;}.cls-2{fill:#0f206c;}</style></defs><title>logo-hor</title><path class="cls-1" d="M308.55,19.75c-1.38,7.19-30.72,18.45-30.44-9.23-.28-1.11-.19-7.1-12.92-7.38-1.38-.28,21.13-15.22-.46-29.06-.55,3.88-1.2,22.6-31.36,22.6-3.32.28-47.61,11.9-45.66,69.19,1.1,72.23,80.16,91.7,77.94,136.53-5.25-7.47-25.33-9.78-33.67-15.68-1.1-1.38-5.16-11.53,3.69-25.37-2.21-.28-20.11,1.57-19.83,14.3,0,6.09,2.31,23.06,2.31,23.06s-10.8,18.64-26.3-6c-1.1.83-14.2,21.12,10.15,24.44,0,1.66-22.69,36,6.92,42.9-.28-2.49-8.94-20.39,4.61-32.29,3.05,1.94.93,12,.93,12s17.43,12.64,24.91-5.07c-30.73-13.28,13.84-36.62,26.28-2.31,14.12,62.82-63.18,61.81-79.79,27.22-8-17.72-17.16-37.64-20.76-44.28s-18.35-20.76-17.52-33.21h2.76s10,21.86,24.91,0c-3-1.11-11.81-.83-11.53-13.84,3.32-.55,14.94,1.11,15.22-8.3-2.21-1.94-15.22-8.86-11.07-26.29,2.77-1.11,17.8,3.87,17.53-9.69-2.49-.55-17.81.28-18.91-23.52,0-1.39,14.85.37,14.29-12.92-5.53,0-17.89,5.08-17.06-29.52-.28-1.38-2.77-2.77-2.77-2.77s6.83-10.33,3.23-18.91c-4.15,7.47-13.38,6.92-13.38,6.92s1.11-17.71-20.75-20.76c-1.66-1.66,1.75-12.08-3.23-15.68-4.43,6.64-14.3,14.3-14.3,14.3L96.84,22.51S90.29,34.05,59,34.05c-5,5,2.3,23.7,2.3,25.36S49.33,68.92,68.7,70c4.15,3,2,8.3,2,8.3s-20.48,1-21.86-28.59c-20.21,17.16-3.6,40.87,2.77,40.59,4.42,0,18.91.18,18.91.18v5.35H63.17s5.07,13.66-4.62,21.68c3.05,2.22,13.84,5.26,13.84-3.87,2.49,0,34.13.18,34.13.18s-.27,9.41-8.3,9.69-17.07.46-17.07.46-19.28,27.49-47.5-7.38C32.26,113.84,17.32,70,1.82,54.8-9,41.79-26.41,32.94-28.62,27.13c.27-1.66,14.11-11.44,2.76-24.45-.27-1.66,3.51-16-23.06-17.07,8.86,7.75,6.46,16.15,6.46,16.15S-74.75-13.56-78.9-.55c13.56,2.49,15.22,9.23,15.22,9.23s-27.67,1.66-30.44,18c10.24-3.87,15.59-.46,17.53.93,3,13,18,4.15,18,4.15l2.3,12.91S-73.09,39-72,54.8c-.56,1.11.46,6.83-16.15.46C-90.06,66.06-58.42,81-55.37,62.18c1.93-.55,6.55-2.21,14.29,0,17.16,11.9,6.74,47.6,16.15,37.36,0,1.94-2.59,26.11,6,14.76,1.94,4.71-4.61,35.8,7.85,18.92,0,3-2,30.07,7.38,15.68.55,2.21,0,21.95,6.92,9.22,17.15,19.1,12.17,26.39-4.16,37.46-5.26,3.59-53.87,44.93-76.57,39.11-1.66-1.11-7.1-11.53-18.45-7.93-1.93-.56-16.88-6.09-19.37,15.77a63,63,0,0,1,12-2.77,6.52,6.52,0,0,0,5.54,2.77c20.2-1.38,13.93,9.78,2.3,10.61-3,.28-14.57-1.75-14.3,11.53-.82,1.11-14.94,15.23-1.38,29.07.28-1.66,5.08-16.24,9.23-18.46,2.77,0,13.93,4.33,20.29-12.27,3,0,7.38-.18,7.38-.18v8.3s-8.95,3.41-8.39,12c0,1.66-8.49,20.94,7,25.37,0-16.61,12.91-14.21,14.3-23.06,0-1.94-.83-22.23,9.68-25.83,6.37,8,3.7,25.83,3.7,25.83s13.28-1.29,16.6-22.6c6.92,2.21,14,6,10.15-6.47,5,.84,20.57,11.54,17.53-2.3,2.21.55,24.07,11.16,15.21-1.84,1.94.83,16.33,8.57,9.69-6.92,1.11.55,22.24,16.7,14.76-4.61,3,2.21,14.11,7.38,18,7.38S64,238.66,68.7,238.38c7.75,3.05,5.54,18,44.83,25.73,23.81,5.27,18.45,18.18,2.68,16.24-3.87-.55-25.46-4.42-38.74-4.7-10.52,15.22-54.89,30.62-41.06-5.9-1.38,0-19.92-.28-13.83,24.9-1.67.28-7.66,5.08-24-12.91,0,1.66-3.87,28.32,24.91,30,.55,14.39-24.45,11.53-24.45,11.53s7.66,20.3,29.52,5.08c.83,3.59,3.88,8.57,5.53,6.91s9-6.73,14.3-2.31c-6.08,7.75,9.88,25,7.39,30-6.92.55-36.63,2.67-51.57-1.2C-10.17,355.07-8,342.53-10.17,338.93c-2.22-1.93-25.1-18.44-36.44,2.31a42.7,42.7,0,0,1,7.38,2.31v2.3s-23.34-.74-14.76,18.92c-2.77,2.21-10.61,4.79-6.46,21.68,3.05-1.95,8.4-6.55,14.76-6,1.38.28,10,16.7,16.61.92,2.76,0,12.54-1.94,17.52,0-6.08,1.66-35.14,23.15-6.92,44.74-.27-2.21-.09-14.39,1.85-16.61,20.2.29,6.64-17.8,16.6-21.68a51.53,51.53,0,0,1,6.92,0s2.4,17.63,12.92,18.46c1.38-1.94,6-16.71,22.6,7.38,2.77.56,12-20.48,20.29,6.91,6.37-.27,10.15-12.91,10.15-12.91s9.32,17.81,21.22-4.61c3.6.27,17.89,5.9,24-14.3-39.85,17.43-41.78-50.65,4.16-49.82,3.87,7.48,20.48,29.06,16.61,47.05-1.95,1.11-27.22,6.46-14.77,34.13.28-1.93,2-12.82,7.84-13.37,1.66,2.21-1.38,15.31,9.69,20.3-1.1-3.61-3.05-17,2.77-17.54,2.22,1.95,11.53,18.09,21.22,5.08-3-1.93-19.84-10.33-12.92-23.06,8.86,9.13,20.48,19.47,37.64-3.23,0,4.15-4.71,12.91,5.26,21.21-12.18,6.09-9.69,34-19.38,33.68-3.87,0-14.11-13.93-22.14,3.23-1.66,0-16.32-3.78-12.45,24.45,3-1.39,11.16-12.73,12-6.93.55,7.48-14.2,30.72,7.38,31.83-.27,3.6-.83,11.81,16.61,11.53a121.28,121.28,0,0,1-.46-12.45s11.07-.37,11.07-3.69S184,458.22,202,464.86c1.94,3.6-.18,12.91-.45,17.07,16.6,3,40.86-28.61,12.91-27.22V443.18S236,447,239.83,429.8c-2.77,0-7.85,1.57-7.85-3.69,0-1.38,14.21-4,13.39-16.7-18.27-1.38.45-9.5,7.37-10.05,0-6.92-11.35-6.18-11.07-10.61.56-1.66,9.78-9.68,13.38-8.3,1.38-8.58-7.84-8.77-7.84-8.77s1.57-6.82,14.3-7.37c-3.05-7.48-35-12.56-13.38-23.9-8.85-2.49-16.24-6.92-14-27.12-5.26,19.09-48.9,29.52-49.17,7.66V296s11.16,11.07,36.34,11.62c33.21-1.1,102.73-35.93,55-135.7-18.68-37.5-62.38-67.23-68.26-85.33-6.35-19.56-3.33-58.4,20.76-73.34,8.3-4.43,24.81-3.14,8.76,23.16,0,3.32-3.32,24.44,8.3,22.5C241.12,65.6,242,78.23,244,88.47c.83,3.33,4.51,23.25,31.36,16.61-2.49-3-14.3-20,2.31-32.75.27,2.21,6.83,23.89,29.52,5.07-6.09-.55-13.84-4.42-13.84-8.3,0-5.26,6.37-21,2.77-27.67,3.32-.56,21.86-1.48,12.45-21.68M79.68,70.11s11.07-5.53,19.65-1.93c2.21,1.93,0,9.68,0,9.68H79.68Zm18,27.13c-5.54.55-11.62.55-14.12.55S79.13,92,79.13,92l23.24-.55s.83,5.25-4.7,5.81" transform="translate(117.05 25.92)"/><path class="cls-2" d="M523.5,152.14c9.56.31,21.6.93,36.41,19.75,2.77-.92,4-16.66,6.47-22.52-3.39-1.85-22.82-10.18-42.88-9.56-33.32-.31-81.45,16-82.07,75.58,0,3.7-7.71,71.27,78.06,73.74,8,0,35.17-2.78,41-9.26.31-6.48,6.79-18.2,2.78-19.74-1.85,1.54-13.89,15.11-37.95,16.34-3.7,0-49.36,0-49.67-62,0-3.7,2.77-62.32,47.82-62.32m-166.29-9.25s5.55,59.24,0,146.24c14.19-3.4,34.55-.62,34.55-.62s-4.62-79.6.31-145.62a91.91,91.91,0,0,1-34.86,0M686.09,158s25.6.61,37.94,3.7a39.33,39.33,0,0,1-.3-18.82c-2.16.31-55.84,3.4-108.29-.31,1.54,8.33.61,13.27,0,19.13,14.8-4,38.56-2.78,38.56-2.78s1.23,115.08-1.85,130.51a59.17,59.17,0,0,1,35.17,0C685.16,257,686.09,158,686.09,158M327,333.6a14.26,14.26,0,0,0-4.26,6.71h-.16V331.9H316v40.83h6.54V351.92c0-4.55.93-8.13,2.81-10.77a8.34,8.34,0,0,1,7-3.94,8,8,0,0,1,4.94,1.31v-6.78a10.72,10.72,0,0,0-3.91-.56A9.75,9.75,0,0,0,327,333.6M364.5,331a17.35,17.35,0,0,0-13.42,6q-5.4,6-5.4,15.52,0,10.09,4.95,15.66t13.59,5.56q8.85,0,14.24-3.91v-6.14a20,20,0,0,1-12.68,4.55q-6.13,0-9.65-3.71c-2.34-2.48-3.56-6-3.67-10.53h28.83v-3.43q0-9.21-4.38-14.39T364.5,331m-12,17.46a15,15,0,0,1,4-8.65,10.54,10.54,0,0,1,7.85-3.31,9.31,9.31,0,0,1,7.48,3.15q2.68,3.15,2.73,8.81Zm45.7-11.34q-5.78,6.12-5.78,16.2,0,9.06,5.36,14.74t14.1,5.68a21.21,21.21,0,0,0,11.16-2.83v-6.22A16.4,16.4,0,0,1,413,368.19,13,13,0,0,1,402.92,364q-3.76-4.14-3.76-11.32c0-4.87,1.34-8.79,4-11.79a13.13,13.13,0,0,1,10.26-4.48,16.59,16.59,0,0,1,9.73,3.19v-6.7a21.47,21.47,0,0,0-9.49-2q-9.65,0-15.43,6.12M448,333.6a14.2,14.2,0,0,0-4.27,6.71h-.16V331.9H437v40.83h6.54V351.92c0-4.55.94-8.13,2.81-10.77a8.35,8.35,0,0,1,7-3.94,8.08,8.08,0,0,1,4.95,1.31v-6.78a10.76,10.76,0,0,0-3.91-.56A9.71,9.71,0,0,0,448,333.6m48,21.82a13.48,13.48,0,0,1-3.09,9.23,10,10,0,0,1-7.87,3.54q-9.88,0-9.89-12.92V331.9h-6.5v24.4q0,17.4,14.59,17.39a13.43,13.43,0,0,0,12.6-7.41H496v6.45h6.54V331.9H496Zm27.16-42.37a4.18,4.18,0,0,0-4.23,4.26,4,4,0,0,0,1.24,3,4.13,4.13,0,0,0,3,1.2,4.2,4.2,0,0,0,3.05-1.24,4.25,4.25,0,0,0,0-6,4.22,4.22,0,0,0-3.05-1.21m-3.35,59.68h6.54V331.9h-6.54Zm32.51-52.91-6.54,2.11v10h-7v5.59h7v24.16q0,12,10.73,12a12.58,12.58,0,0,0,6.09-1.28v-5.58a6.86,6.86,0,0,1-4.26,1.35c-2.15,0-3.69-.57-4.63-1.75s-1.39-3.13-1.39-5.86v-23h10.28V331.9H552.3ZM619.89,331q-9,0-13.55,8.45A11.8,11.8,0,0,0,594.77,331q-8.32,0-12.68,7.41h-.16V331.9h-6.54v40.83h6.54V349.44a14.94,14.94,0,0,1,2.79-9.39,8.63,8.63,0,0,1,7.1-3.6q9.3,0,9.29,12v24.25h6.54V349.44a14.63,14.63,0,0,1,2.94-9.17,8.7,8.7,0,0,1,7.11-3.82c3.29,0,5.65,1,7,3s2.09,5.3,2.09,9.81v23.45h6.54V347.57q0-16.62-13.48-16.62m45.94,0a17.32,17.32,0,0,0-13.42,6q-5.4,6-5.4,15.52,0,10.09,4.94,15.66t13.59,5.56q8.87,0,14.24-3.91v-6.14a20,20,0,0,1-12.68,4.55q-6.14,0-9.65-3.71c-2.34-2.48-3.56-6-3.67-10.53h28.83v-3.43q0-9.21-4.39-14.39T665.83,331m-12,17.46a15,15,0,0,1,4-8.65,10.56,10.56,0,0,1,7.86-3.31,9.29,9.29,0,0,1,7.47,3.15q2.7,3.15,2.73,8.81ZM716.67,331q-8.77,0-13.4,7.73h-.16V331.9h-6.54v40.83h6.54V349.44a13.66,13.66,0,0,1,3.21-9.3,10.29,10.29,0,0,1,8.12-3.69q9.48,0,9.48,13v23.29h6.54v-25q0-8.17-3.54-12.5T716.67,331m49.13,6.54V331.9H755.51V319.82L749,321.93v10h-7v5.59h7v24.16q0,12,10.72,12a12.66,12.66,0,0,0,6.11-1.28v-5.58a6.91,6.91,0,0,1-4.27,1.35c-2.16,0-3.7-.57-4.63-1.75s-1.39-3.13-1.39-5.86v-23Z" transform="translate(117.05 25.92)"/></svg>