<svg id="Layer_1" data-name="Layer 1" xmlns="http://www.w3.org/2000/svg" viewBox="0 0 645.42 92.56"><defs><style>.cls-1,.cls-2,.cls-3,.cls-4,.cls-5,.cls-6,.cls-7{fill:none;}.cls-1,.cls-2,.cls-3,.cls-4,.cls-5,.cls-6{stroke:#000;stroke-miterlimit:1;}.cls-1{stroke-width:6px;}.cls-2,.cls-4,.cls-5,.cls-6{stroke-width:2px;}.cls-2{opacity:0.59;}.cls-4{opacity:0.69;}.cls-5{opacity:0.8;}.cls-6{opacity:0.7;}</style></defs><rect class="cls-1" x="-0.77" y="1.22" width="86.56" height="84.11" transform="translate(88.34 3.77) rotate(90)"/><polyline class="cls-2" points="86.91 89.95 72.2 68.38 59.17 89.82 44.29 68.25 30.92 89.69 16.55 68.13 2.67 89.57"/><path class="cls-3" d="M49,71.2" transform="translate(2.54 3)"/><polyline class="cls-4" points="87.17 68.3 72.47 46.73 59.44 68.17 44.56 46.6 31.19 68.05 16.82 46.48 2.94 67.92"/><polyline class="cls-5" points="86.78 46.48 72.08 24.91 59.04 46.35 44.17 24.78 30.79 46.22 16.43 24.65 2.54 46.09"/><polyline class="cls-6" points="87.05 24.83 72.34 3.26 59.31 24.7 44.44 3.13 31.06 24.57 16.7 3.01 2.81 24.45"/><path d="M102.54,44.22c0-15.13,8.33-24.32,20.2-24.32s20.2,9.22,20.2,24.32-8.33,24.67-20.2,24.67S102.54,59.36,102.54,44.22Zm34.19,0c0-11.77-5.55-19-14-19s-14,7.26-14,19,5.55,19.38,14,19.38S136.73,56,136.73,44.22Z" transform="translate(2.54 3)"/><path d="M150,50.57c0-11.35,7.17-18.41,15.15-18.41,4.07,0,6.74,1.53,9.81,4.05l-.25-6V16.73h5.92V68h-4.89l-.5-4.13h-.2c-2.72,2.72-6.45,5-10.62,5C155.71,68.89,150,62.23,150,50.57Zm24.71,8.56V40.78c-3-2.66-5.68-3.64-8.54-3.64-5.6,0-10.05,5.4-10.05,13.38,0,8.39,3.48,13.38,9.61,13.38C169,63.9,171.81,62.33,174.75,59.13Z" transform="translate(2.54 3)"/><path d="M198,64.41h-.2L197.23,68H192.5V16.73h5.92v14l-.2,6.27c3.21-2.76,7.1-4.87,11-4.87,9,0,13.9,7,13.9,17.81,0,12-7.16,18.92-15.15,18.92C204.71,68.89,201.08,67.21,198,64.41Zm19-14.36c0-7.73-2.63-12.91-9.22-12.91-3,0-6.05,1.63-9.36,4.78V60.26a13.44,13.44,0,0,0,8.52,3.64C212.74,63.9,217,58.69,217,50.05Z" transform="translate(2.54 3)"/><path d="M229.71,50.57c0-11.68,7.64-18.41,16.22-18.41s16.22,6.73,16.22,18.41-7.64,18.32-16.22,18.32S229.71,62.16,229.71,50.57Zm26.32,0c0-8-4.08-13.48-10.1-13.48s-10.1,5.46-10.1,13.48S239.91,64,245.93,64,256,58.59,256,50.57Z" transform="translate(2.54 3)"/><path d="M271.34,33h4.89l.5,6.38h.2c2.43-4.44,6-7.24,9.95-7.24a8.12,8.12,0,0,1,3.73.72l-1.1,5.19a10,10,0,0,0-3.4-.57c-2.95,0-6.48,2.13-8.85,8V68h-5.92Z" transform="translate(2.54 3)"/><path d="M296.32,33h4.89l.5,5h.2c3.34-3.28,6.94-5.91,11.74-5.91,7.38,0,10.69,4.76,10.69,13.69V68h-5.92V46.61c0-6.52-2-9.31-6.61-9.31-3.58,0-6.06,1.83-9.57,5.38V68h-5.92Z" transform="translate(2.54 3)"/><path d="M333.1,50.57c0-11.39,7.68-18.41,15.74-18.41,8.93,0,14,6.41,14,16.42a18.89,18.89,0,0,1-.28,3.37H339c.42,7.41,5,12.22,11.63,12.22a15.24,15.24,0,0,0,8.71-2.8l2.12,3.89a20.57,20.57,0,0,1-11.56,3.63C340.53,68.89,333.1,62.07,333.1,50.57Zm24.47-2.86c0-7-3.15-10.83-8.63-10.83-4.92,0-9.31,3.95-10,10.83ZM344.78,23.79,355,11.8l4.17,3.93-11.32,11Z" transform="translate(2.54 3)"/><path d="M385.81,33h4.9l.5,4h.19c3.17-2.63,7.11-4.9,11.16-4.9,9.05,0,13.88,7,13.88,17.83,0,11.93-7.16,18.9-15.16,18.9-3.21,0-6.49-1.48-9.7-4.06l.16,6.11V82.79h-5.93Zm24.51,17c0-7.73-2.64-12.91-9.23-12.91-3,0-5.95,1.63-9.35,4.78V60.26c3.17,2.67,6.21,3.64,8.52,3.64C406.05,63.9,410.32,58.69,410.32,50.05Z" transform="translate(2.54 3)"/><path d="M424.39,16.64l2.51-2.32,8.49,8.15h.29l8.49-8.15,2.51,2.32-8.18,10h-5.94ZM425.77,33h4.9l.5,6.38h.19c2.44-4.44,6-7.24,10-7.24a8.18,8.18,0,0,1,3.73.72L444,38.07a10.06,10.06,0,0,0-3.4-.57c-3,0-6.49,2.13-8.85,8V68h-5.93Z" transform="translate(2.54 3)"/><path d="M447.44,50.57c0-11.39,7.67-18.41,15.73-18.41,8.93,0,14,6.41,14,16.42a18.89,18.89,0,0,1-.28,3.37H453.29c.42,7.41,5,12.22,11.63,12.22a15.24,15.24,0,0,0,8.71-2.8l2.12,3.89a20.57,20.57,0,0,1-11.56,3.63C454.86,68.89,447.44,62.07,447.44,50.57Zm24.46-2.86c0-7-3.15-10.83-8.62-10.83-4.92,0-9.32,3.95-10,10.83Z" transform="translate(2.54 3)"/><path d="M485.75,16.73h5.81V51.47h.2L506.7,33h6.57L501.55,47.09,514.81,68h-6.48L498.13,51.2l-6.57,7.64V68h-5.81Z" transform="translate(2.54 3)"/><path d="M521.39,61V16.73h5.92v44.7c0,1.81.79,2.53,1.65,2.53a5,5,0,0,0,1.3-.15l.8,4.53a9.6,9.6,0,0,1-3.41.55C523.21,68.89,521.39,66.06,521.39,61Z" transform="translate(2.54 3)"/><path d="M537.58,58.94c0-7.63,6.58-11.44,21.49-13.06,0-4.51-1.5-8.84-7.22-8.84-4.05,0-7.7,1.91-10.44,3.75l-2.32-4.06c3.22-2.11,8.14-4.57,13.75-4.57,8.54,0,12.16,5.68,12.16,14.39V68h-4.89l-.5-4.18h-.2c-3.34,2.77-7.23,5-11.58,5C542,68.89,537.58,65.25,537.58,58.94Zm21.49.54V49.76c-11.72,1.41-15.69,4.29-15.69,8.76,0,4,2.7,5.6,6.13,5.6S555.69,62.47,559.07,59.48Z" transform="translate(2.54 3)"/><path d="M573.54,50.57c0-11.35,7.16-18.41,15.14-18.41,4.07,0,6.74,1.53,9.81,4.05l-.25-6V16.73h5.93V68h-4.9l-.5-4.13h-.19c-2.72,2.72-6.45,5-10.62,5C579.21,68.89,573.54,62.23,573.54,50.57Zm24.7,8.56V40.78c-3-2.66-5.68-3.64-8.53-3.64-5.6,0-10.05,5.4-10.05,13.38,0,8.39,3.47,13.38,9.61,13.38C592.5,63.9,595.31,62.33,598.24,59.13Z" transform="translate(2.54 3)"/><path d="M612.48,82.39l1.16-4.72a9,9,0,0,0,2.67.52c4,0,6.44-3.17,7.89-7.51l.8-2.59L611,33h6.11L624.2,52.4c1.1,3,2.27,6.62,3.41,9.86h.29c1-3.18,2-6.77,2.94-9.86L637.08,33h5.8L629.69,70.91c-2.47,6.94-6.08,12.2-13.1,12.2A11.42,11.42,0,0,1,612.48,82.39Z" transform="translate(2.54 3)"/><text x="2.54" y="3"/><rect class="cls-7" x="-0.9" y="1.03" width="86.56" height="84.51" transform="translate(88.21 3.91) rotate(90)"/></svg>